<svg xmlns="http://www.w3.org/2000/svg" xmlns:xlink="http://www.w3.org/1999/xlink" width="500" zoomAndPan="magnify" viewBox="0 0 375 374.999991" height="500" preserveAspectRatio="xMidYMid meet" version="1.2"><defs><clipPath id="700556692a"><path d="M 0.144531 48.75 L 374.839844 48.75 L 374.839844 374.992188 L 0.144531 374.992188 Z M 0.144531 48.75 "/></clipPath></defs><g id="b9958e14e6"><rect x="0" width="375" y="0" height="374.999991" style="fill:#ffffff;fill-opacity:1;stroke:none;"/><rect x="0" width="375" y="0" height="374.999991" style="fill:#09090b;fill-opacity:1;stroke:none;"/><g clip-rule="nonzero" clip-path="url(#700556692a)"><path style=" stroke:none;fill-rule:nonzero;fill:#ffffff;fill-opacity:1;" d="M 239.960938 362.007812 L 298.535156 260.550781 L 357.109375 362.007812 Z M 187.492188 68.222656 L 233.164062 147.332031 L 109.171875 362.007812 L 17.871094 362.007812 Z M 124.164062 362.007812 L 240.660156 160.3125 L 291.039062 247.570312 L 224.96875 362.007812 Z M 373.972656 365.253906 L 304.421875 244.785156 C 304.320312 244.5625 304.183594 244.359375 304.054688 244.148438 L 246.53125 144.519531 C 246.464844 144.375 246.371094 144.242188 246.292969 144.101562 L 193.113281 51.996094 C 191.957031 49.988281 189.8125 48.75 187.492188 48.75 C 185.175781 48.75 183.03125 49.988281 181.871094 51.996094 L 1.011719 365.253906 C -0.144531 367.265625 -0.144531 369.734375 1.011719 371.746094 C 2.171875 373.753906 4.316406 374.992188 6.632812 374.992188 L 368.351562 374.992188 C 370.667969 374.992188 372.8125 373.753906 373.972656 371.746094 C 375.128906 369.738281 375.128906 367.265625 373.972656 365.253906 "/></g></g></svg>